<mxfile host="65bd71144e">
    <diagram id="4DNjZnNtsKpjTVMBMkSJ" name="Page-1">
        <mxGraphModel dx="1705" dy="648" grid="1" gridSize="10" guides="1" tooltips="1" connect="1" arrows="1" fold="1" page="1" pageScale="1" pageWidth="850" pageHeight="1100" math="0" shadow="0">
            <root>
                <mxCell id="0"/>
                <mxCell id="1" parent="0"/>
                <mxCell id="68" value="" style="rounded=1;whiteSpace=wrap;html=1;fontSize=14;strokeWidth=2;" parent="1" vertex="1">
                    <mxGeometry x="210" y="510" width="480" height="400" as="geometry"/>
                </mxCell>
                <mxCell id="62" style="edgeStyle=none;html=1;exitX=0.875;exitY=0.5;exitDx=0;exitDy=0;exitPerimeter=0;entryX=0;entryY=0.5;entryDx=0;entryDy=0;fontSize=14;strokeColor=#FF0000;" parent="1" source="37" target="61" edge="1">
                    <mxGeometry relative="1" as="geometry"/>
                </mxCell>
                <mxCell id="37" value="REST" style="ellipse;shape=cloud;whiteSpace=wrap;html=1;" parent="1" vertex="1">
                    <mxGeometry x="-170" y="670" width="120" height="80" as="geometry"/>
                </mxCell>
                <mxCell id="45" value="" style="group" parent="1" vertex="1" connectable="0">
                    <mxGeometry x="440" y="560" width="250" height="330" as="geometry"/>
                </mxCell>
                <mxCell id="96" value="" style="rounded=1;whiteSpace=wrap;html=1;" vertex="1" parent="45">
                    <mxGeometry x="-49" y="-40" width="280" height="361" as="geometry"/>
                </mxCell>
                <mxCell id="43" value="" style="rounded=1;whiteSpace=wrap;html=1;" parent="45" vertex="1">
                    <mxGeometry width="90" height="110" as="geometry"/>
                </mxCell>
                <mxCell id="38" value="Go User API" style="rounded=1;whiteSpace=wrap;html=1;" parent="45" vertex="1">
                    <mxGeometry x="7.5" y="16.923076923076923" width="45" height="59.23076923076923" as="geometry"/>
                </mxCell>
                <mxCell id="44" value="&lt;font style=&quot;font-size: 12px&quot;&gt;POD&lt;/font&gt;" style="text;html=1;strokeColor=none;fillColor=none;align=center;verticalAlign=middle;whiteSpace=wrap;rounded=0;" parent="45" vertex="1">
                    <mxGeometry x="45" y="84.61538461538461" width="45" height="25.384615384615383" as="geometry"/>
                </mxCell>
                <mxCell id="97" value="Deployment" style="text;html=1;strokeColor=none;fillColor=none;align=center;verticalAlign=middle;whiteSpace=wrap;rounded=0;fontSize=14;" vertex="1" parent="45">
                    <mxGeometry x="95" y="-30" width="155" height="30" as="geometry"/>
                </mxCell>
                <mxCell id="88" style="edgeStyle=orthogonalEdgeStyle;html=1;exitX=1;exitY=0.5;exitDx=0;exitDy=0;entryX=0;entryY=0.5;entryDx=0;entryDy=0;fontSize=14;strokeColor=#FF0000;" parent="1" source="60" target="43" edge="1">
                    <mxGeometry relative="1" as="geometry"/>
                </mxCell>
                <mxCell id="89" style="edgeStyle=orthogonalEdgeStyle;html=1;exitX=1;exitY=0.5;exitDx=0;exitDy=0;entryX=0;entryY=0.75;entryDx=0;entryDy=0;fontSize=14;strokeColor=#FF0000;" parent="1" source="60" target="77" edge="1">
                    <mxGeometry relative="1" as="geometry">
                        <Array as="points">
                            <mxPoint x="400" y="710"/>
                            <mxPoint x="400" y="682"/>
                        </Array>
                    </mxGeometry>
                </mxCell>
                <mxCell id="90" style="edgeStyle=orthogonalEdgeStyle;html=1;exitX=1;exitY=0.5;exitDx=0;exitDy=0;entryX=0;entryY=0.5;entryDx=0;entryDy=0;fontSize=14;strokeColor=#FF0000;" parent="1" source="60" target="81" edge="1">
                    <mxGeometry relative="1" as="geometry"/>
                </mxCell>
                <mxCell id="91" style="edgeStyle=orthogonalEdgeStyle;html=1;exitX=1;exitY=0.5;exitDx=0;exitDy=0;entryX=0;entryY=0.75;entryDx=0;entryDy=0;fontSize=14;strokeColor=#FF0000;" parent="1" source="60" target="85" edge="1">
                    <mxGeometry relative="1" as="geometry">
                        <Array as="points">
                            <mxPoint x="400" y="710"/>
                            <mxPoint x="400" y="842"/>
                        </Array>
                    </mxGeometry>
                </mxCell>
                <mxCell id="60" value="Service" style="rounded=1;whiteSpace=wrap;html=1;fontSize=14;" parent="1" vertex="1">
                    <mxGeometry x="240" y="680" width="120" height="60" as="geometry"/>
                </mxCell>
                <mxCell id="63" style="edgeStyle=none;html=1;exitX=1;exitY=0.5;exitDx=0;exitDy=0;entryX=0;entryY=0.5;entryDx=0;entryDy=0;fontSize=14;strokeColor=#FF0000;" parent="1" source="61" target="60" edge="1">
                    <mxGeometry relative="1" as="geometry"/>
                </mxCell>
                <mxCell id="61" value="Load Balancer" style="rounded=1;whiteSpace=wrap;html=1;fontSize=14;" parent="1" vertex="1">
                    <mxGeometry x="50" y="680" width="120" height="60" as="geometry"/>
                </mxCell>
                <mxCell id="69" value="&lt;b&gt;Kubernetes Cluster&lt;/b&gt;" style="text;html=1;strokeColor=none;fillColor=none;align=center;verticalAlign=middle;whiteSpace=wrap;rounded=0;fontSize=14;" parent="1" vertex="1">
                    <mxGeometry x="222.5" y="528" width="155" height="30" as="geometry"/>
                </mxCell>
                <mxCell id="70" value="MySQL" style="shape=cylinder3;whiteSpace=wrap;html=1;boundedLbl=1;backgroundOutline=1;size=15;fontSize=14;" parent="1" vertex="1">
                    <mxGeometry x="720" y="687" width="60" height="80" as="geometry"/>
                </mxCell>
                <mxCell id="76" value="" style="group" parent="1" vertex="1" connectable="0">
                    <mxGeometry x="540" y="600" width="90" height="110" as="geometry"/>
                </mxCell>
                <mxCell id="77" value="" style="rounded=1;whiteSpace=wrap;html=1;" parent="76" vertex="1">
                    <mxGeometry width="90" height="110" as="geometry"/>
                </mxCell>
                <mxCell id="78" value="Go User API" style="rounded=1;whiteSpace=wrap;html=1;" parent="76" vertex="1">
                    <mxGeometry x="7.5" y="16.923076923076923" width="45" height="59.23076923076923" as="geometry"/>
                </mxCell>
                <mxCell id="79" value="&lt;font style=&quot;font-size: 12px&quot;&gt;POD&lt;/font&gt;" style="text;html=1;strokeColor=none;fillColor=none;align=center;verticalAlign=middle;whiteSpace=wrap;rounded=0;" parent="76" vertex="1">
                    <mxGeometry x="45" y="84.61538461538461" width="45" height="25.384615384615383" as="geometry"/>
                </mxCell>
                <mxCell id="80" value="" style="group" parent="1" vertex="1" connectable="0">
                    <mxGeometry x="440" y="700" width="90" height="110" as="geometry"/>
                </mxCell>
                <mxCell id="81" value="" style="rounded=1;whiteSpace=wrap;html=1;" parent="80" vertex="1">
                    <mxGeometry width="90" height="110" as="geometry"/>
                </mxCell>
                <mxCell id="82" value="Go User API" style="rounded=1;whiteSpace=wrap;html=1;" parent="80" vertex="1">
                    <mxGeometry x="7.5" y="16.923076923076923" width="45" height="59.23076923076923" as="geometry"/>
                </mxCell>
                <mxCell id="83" value="&lt;font style=&quot;font-size: 12px&quot;&gt;POD&lt;/font&gt;" style="text;html=1;strokeColor=none;fillColor=none;align=center;verticalAlign=middle;whiteSpace=wrap;rounded=0;" parent="80" vertex="1">
                    <mxGeometry x="45" y="84.61538461538461" width="45" height="25.384615384615383" as="geometry"/>
                </mxCell>
                <mxCell id="84" value="" style="group" parent="1" vertex="1" connectable="0">
                    <mxGeometry x="540" y="760" width="90" height="110" as="geometry"/>
                </mxCell>
                <mxCell id="85" value="" style="rounded=1;whiteSpace=wrap;html=1;" parent="84" vertex="1">
                    <mxGeometry width="90" height="110" as="geometry"/>
                </mxCell>
                <mxCell id="86" value="Go User API" style="rounded=1;whiteSpace=wrap;html=1;" parent="84" vertex="1">
                    <mxGeometry x="7.5" y="16.923076923076923" width="45" height="59.23076923076923" as="geometry"/>
                </mxCell>
                <mxCell id="87" value="&lt;font style=&quot;font-size: 12px&quot;&gt;POD&lt;/font&gt;" style="text;html=1;strokeColor=none;fillColor=none;align=center;verticalAlign=middle;whiteSpace=wrap;rounded=0;" parent="84" vertex="1">
                    <mxGeometry x="45" y="84.61538461538461" width="45" height="25.384615384615383" as="geometry"/>
                </mxCell>
                <mxCell id="92" style="edgeStyle=orthogonalEdgeStyle;html=1;exitX=1;exitY=0.25;exitDx=0;exitDy=0;entryX=0;entryY=0.5;entryDx=0;entryDy=0;entryPerimeter=0;fontSize=14;strokeColor=#FF0000;" parent="1" source="43" target="70" edge="1">
                    <mxGeometry relative="1" as="geometry">
                        <Array as="points">
                            <mxPoint x="660" y="588"/>
                            <mxPoint x="660" y="727"/>
                        </Array>
                    </mxGeometry>
                </mxCell>
                <mxCell id="93" style="edgeStyle=orthogonalEdgeStyle;html=1;exitX=1;exitY=0.5;exitDx=0;exitDy=0;fontSize=14;entryX=0;entryY=0.5;entryDx=0;entryDy=0;entryPerimeter=0;strokeColor=#FF0000;" parent="1" source="77" target="70" edge="1">
                    <mxGeometry relative="1" as="geometry">
                        <mxPoint x="710" y="630" as="targetPoint"/>
                        <Array as="points">
                            <mxPoint x="660" y="655"/>
                            <mxPoint x="660" y="727"/>
                        </Array>
                    </mxGeometry>
                </mxCell>
                <mxCell id="94" style="edgeStyle=orthogonalEdgeStyle;html=1;exitX=1;exitY=0.25;exitDx=0;exitDy=0;entryX=0;entryY=0.5;entryDx=0;entryDy=0;entryPerimeter=0;fontSize=14;strokeColor=#FF0000;" parent="1" source="81" target="70" edge="1">
                    <mxGeometry relative="1" as="geometry"/>
                </mxCell>
                <mxCell id="95" style="edgeStyle=orthogonalEdgeStyle;html=1;exitX=1;exitY=0.5;exitDx=0;exitDy=0;entryX=0;entryY=0.5;entryDx=0;entryDy=0;entryPerimeter=0;fontSize=14;strokeColor=#FF0000;" parent="1" source="85" target="70" edge="1">
                    <mxGeometry relative="1" as="geometry">
                        <Array as="points">
                            <mxPoint x="660" y="815"/>
                            <mxPoint x="660" y="727"/>
                        </Array>
                    </mxGeometry>
                </mxCell>
            </root>
        </mxGraphModel>
    </diagram>
</mxfile>